<svg width="1000" height="1000" viewBox="0 0 1000 1000" fill="none" xmlns="http://www.w3.org/2000/svg">
<path d="M474.719 412.944H430.009C425.945 412.944 423 411.165 421.172 407.606C419.375 404.047 419.644 400.629 421.981 397.351L506.292 274.755C507.82 272.59 509.717 271.157 511.984 270.455C514.251 269.753 516.647 269.863 519.173 270.786C521.68 271.708 523.502 273.232 524.64 275.357C525.769 277.482 526.178 279.803 525.869 282.319L515.324 367.833H569.05C573.244 367.833 576.215 369.753 577.962 373.592C579.719 377.422 579.245 380.981 576.539 384.269L482.717 497.09C481.119 498.995 479.192 500.208 476.935 500.729C474.679 501.25 472.442 501.02 470.225 500.037C468.018 499.055 466.331 497.566 465.163 495.571C464.004 493.576 463.58 491.321 463.889 488.805L474.719 412.944Z" fill="black"/>
<path d="M568.988 738.272C576.402 738.272 582.859 735.517 588.36 730.005C593.861 724.494 596.611 718.036 596.611 710.631C596.611 703.203 593.861 696.733 588.36 691.221C582.859 685.71 576.402 682.954 568.988 682.954C561.573 682.954 555.116 685.71 549.615 691.221C544.114 696.733 541.364 703.203 541.364 710.631C541.364 718.06 544.114 724.53 549.615 730.041C555.116 735.553 561.573 738.272 568.988 738.272ZM673.85 738.308C681.264 738.308 687.722 735.553 693.223 730.041C698.724 724.53 701.474 718.06 701.474 710.631C701.474 703.203 698.724 696.733 693.223 691.221C687.722 685.71 681.264 682.954 673.85 682.954C666.436 682.954 659.979 685.71 654.478 691.221C648.977 696.733 646.227 703.203 646.227 710.631C646.227 718.06 648.977 724.53 654.478 730.041C659.979 735.553 666.436 738.308 673.85 738.308ZM213 554.417V235.05C213 218.516 218.537 204.713 229.61 193.642C240.66 182.547 254.436 177 270.938 177H729.062C745.564 177 759.34 182.547 770.39 193.642C781.463 204.713 787 218.516 787 235.05V554.417H751.125V235.05C751.125 229.539 748.829 224.471 744.237 219.846C739.621 215.245 734.563 212.944 729.062 212.944H270.938C265.437 212.944 260.379 215.245 255.763 219.846C251.171 224.471 248.875 229.539 248.875 235.05V554.417H213ZM248.875 590.361V765.95C248.875 771.461 251.171 776.529 255.763 781.154C260.379 785.755 265.437 788.056 270.938 788.056H729.062C734.563 788.056 739.621 785.755 744.237 781.154C748.829 776.529 751.125 771.461 751.125 765.95V590.361H248.875ZM270.938 824C254.436 824 240.66 818.465 229.61 807.394C218.537 796.299 213 782.484 213 765.95V554.417H787V765.95C787 782.484 781.475 796.287 770.426 807.358C759.352 818.453 745.564 824 729.062 824H270.938Z" fill="black"/>
</svg>
