<svg width="1000" height="1000" viewBox="0 0 1000 1000" fill="none" xmlns="http://www.w3.org/2000/svg">
<path d="M468.796 450.359H413.401C408.366 450.359 404.716 448.164 402.452 443.773C400.225 439.383 400.559 435.165 403.454 431.121L507.916 279.867C509.808 277.196 512.159 275.427 514.967 274.561C517.776 273.695 520.745 273.831 523.875 274.969C526.98 276.107 529.238 277.987 530.649 280.609C532.047 283.231 532.554 286.094 532.17 289.199L519.106 394.704H585.672C590.868 394.704 594.549 397.072 596.714 401.809C598.891 406.533 598.304 410.924 594.951 414.981L478.706 554.176C476.726 556.526 474.339 558.022 471.543 558.666C468.747 559.309 465.975 559.024 463.229 557.812C460.495 556.6 458.404 554.764 456.956 552.302C455.521 549.841 454.995 547.058 455.379 543.954L468.796 450.359Z" fill="black"/>
<path d="M587.5 756.785C594.914 756.785 601.372 754.029 606.872 748.518C612.373 743.006 615.124 736.548 615.124 729.144C615.124 721.715 612.373 715.245 606.872 709.734C601.372 704.222 594.914 701.466 587.5 701.466C580.086 701.466 573.628 704.222 568.128 709.734C562.627 715.245 559.876 721.715 559.876 729.144C559.876 736.572 562.627 743.042 568.128 748.554C573.628 754.065 580.086 756.785 587.5 756.785ZM692.363 756.821C699.777 756.821 706.234 754.065 711.735 748.554C717.236 743.042 719.986 736.572 719.986 729.144C719.986 721.715 717.236 715.245 711.735 709.734C706.234 704.222 699.777 701.466 692.363 701.466C684.948 701.466 678.491 704.222 672.99 709.734C667.489 715.245 664.739 721.715 664.739 729.144C664.739 736.572 667.489 743.042 672.99 748.554C678.491 754.065 684.948 756.821 692.363 756.821ZM213 631.056V235.05C213 218.516 218.537 204.713 229.61 193.642C240.66 182.547 254.436 177 270.938 177H729.062C745.564 177 759.34 182.547 770.39 193.642C781.463 204.713 787 218.516 787 235.05V631.056H751.125V235.05C751.125 229.539 748.829 224.471 744.237 219.846C739.621 215.245 734.563 212.944 729.062 212.944H270.938C265.437 212.944 260.379 215.245 255.763 219.846C251.171 224.471 248.875 229.539 248.875 235.05V631.056H213ZM248.875 667V765.95C248.875 771.461 251.171 776.529 255.763 781.154C260.379 785.755 265.437 788.056 270.938 788.056H729.062C734.563 788.056 739.621 785.755 744.237 781.154C748.829 776.529 751.125 771.461 751.125 765.95V667H248.875ZM270.938 824C254.436 824 240.66 818.465 229.61 807.394C218.537 796.299 213 782.484 213 765.95V631.056H787V765.95C787 782.484 781.475 796.287 770.426 807.358C759.352 818.453 745.564 824 729.062 824H270.938Z" fill="black"/>
</svg>
